<svg width="24" height="24" viewBox="0 0 24 24" fill="none" xmlns="http://www.w3.org/2000/svg">
<path d="M20.2 9.39999C20.2 8.8477 19.7523 8.39999 19.2 8.39999C18.6477 8.39999 18.2 8.8477 18.2 9.39999H20.2ZM3.79436 15.9925C3.45887 15.5538 2.83126 15.4701 2.39255 15.8056C1.95384 16.1411 1.87016 16.7687 2.20564 17.2074L3.79436 15.9925ZM2.68377 15.5513C2.15983 15.726 1.87667 16.2923 2.05132 16.8162C2.22596 17.3402 2.79228 17.6233 3.31623 17.4487L2.68377 15.5513ZM5.7 15.6L6.01623 16.5487C6.34502 16.4391 6.59362 16.167 6.67325 15.8297C6.75288 15.4924 6.65217 15.1379 6.40711 14.8929L5.7 15.6ZM4.8 4.79999L5.68583 4.33598C5.5237 4.02646 5.21177 3.82401 4.86305 3.80198C4.51432 3.77995 4.1794 3.94153 3.9796 4.2282L4.8 4.79999ZM10.2 9.29999L9.97838 10.2751C10.2684 10.341 10.5727 10.2744 10.8087 10.0934C11.0447 9.91233 11.1878 9.63563 11.1993 9.33842L10.2 9.29999ZM18.3 6.59999L17.4563 7.13686C17.6399 7.42531 17.9581 7.59999 18.3 7.59999V6.59999ZM21 6.59999L21.8321 7.15469C22.0366 6.84783 22.0557 6.45329 21.8817 6.12813C21.7077 5.80297 21.3688 5.59999 21 5.59999V6.59999ZM18.368 8.74529C18.0616 9.20482 18.1858 9.82569 18.6453 10.132C19.1048 10.4384 19.7257 10.3142 20.0321 9.85469L18.368 8.74529ZM18.2 9.39999C18.2 12.3659 17.3535 14.8113 15.8627 16.5009C14.3856 18.1749 12.1957 19.2 9.3 19.2V21.2C12.7043 21.2 15.4644 19.9751 17.3623 17.8241C19.2465 15.6887 20.2 12.734 20.2 9.39999H18.2ZM9.3 19.2C7.69643 19.2 6.65213 18.7833 5.86874 18.2238C5.04919 17.6384 4.46161 16.8651 3.79436 15.9925L2.20564 17.2074C2.83839 18.0349 3.60081 19.0616 4.70626 19.8512C5.84787 20.6667 7.30358 21.2 9.3 21.2V19.2ZM3.31623 17.4487L6.01623 16.5487L5.38377 14.6513L2.68377 15.5513L3.31623 17.4487ZM6.40711 14.8929C3.76987 12.2556 3.58077 8.29821 5.6204 5.37178L3.9796 4.2282C1.41923 7.90177 1.63013 12.9443 4.99289 16.3071L6.40711 14.8929ZM3.91417 5.26399C5.11374 7.55408 7.42443 9.69468 9.97838 10.2751L10.4216 8.32485C8.57557 7.9053 6.68626 6.24589 5.68583 4.33598L3.91417 5.26399ZM11.1993 9.33842C11.2413 8.24564 11.6151 7.36759 12.1932 6.77078C12.7639 6.1817 13.5969 5.79999 14.7 5.79999V3.79999C13.1031 3.79999 11.7361 4.36828 10.7568 5.37919C9.78492 6.38239 9.25871 7.75433 9.20074 9.26155L11.1993 9.33842ZM14.7 5.79999C15.4687 5.79999 16.0262 5.94869 16.4429 6.17036C16.8566 6.39044 17.1852 6.71077 17.4563 7.13686L19.1437 6.06311C18.7148 5.3892 18.1434 4.80954 17.3821 4.40462C16.6238 4.00128 15.7313 3.79999 14.7 3.79999V5.79999ZM18.3 7.59999H21V5.59999H18.3V7.59999ZM20.1679 6.04529L18.368 8.74529L20.0321 9.85469L21.8321 7.15469L20.1679 6.04529Z" fill="white"/>
</svg>
