<svg width="24" height="24" viewBox="0 0 24 24" fill="none" xmlns="http://www.w3.org/2000/svg">
<path d="M7.5 4H16.5V2H7.5V4ZM16.5 4C18.4477 4 20 5.55228 20 7.5H22C22 4.44772 19.5523 2 16.5 2V4ZM20 7.5V16.5H22V7.5H20ZM20 16.5C20 18.4477 18.4477 20 16.5 20V22C19.5523 22 22 19.5523 22 16.5H20ZM16.5 20H7.5V22H16.5V20ZM7.5 20C5.55228 20 4 18.4477 4 16.5H2C2 19.5523 4.44772 22 7.5 22V20ZM4 16.5V7.5H2V16.5H4ZM4 7.5C4 5.55228 5.55228 4 7.5 4V2C4.44772 2 2 4.44772 2 7.5H4ZM9.4 12C9.4 10.5523 10.5523 9.4 12 9.4V7.4C9.44772 7.4 7.4 9.44772 7.4 12H9.4ZM12 9.4C13.4477 9.4 14.6 10.5523 14.6 12H16.6C16.6 9.44772 14.5523 7.4 12 7.4V9.4ZM14.6 12C14.6 13.4477 13.4477 14.6 12 14.6V16.6C14.5523 16.6 16.6 14.5523 16.6 12H14.6ZM12 14.6C10.5523 14.6 9.4 13.4477 9.4 12H7.4C7.4 14.5523 9.44772 16.6 12 16.6V14.6Z" fill="white"/>
<path d="M16.8998 6.7C16.6998 6.7 16.5998 6.9 16.5998 7C16.5998 7.2 16.7998 7.3 16.8998 7.3C17.0998 7.3 17.1998 7.1 17.1998 7C17.2998 6.9 17.0998 6.7 16.8998 6.7" stroke="white" stroke-width="2" stroke-linecap="round" stroke-linejoin="round"/>
</svg>
